# 3ds Max Wavefront OBJ Exporter v0.97b - (c)2007 guruware
# 创建的文件:11.12.2020 21:42:27

mtllib 场景模型\Dizuo2.mtl

#
# object 对象001
#

v  -6.2892 6.1841 -9.3566
v  -7.7197 5.1463 -11.4847
v  -9.8119 5.1463 -9.7580
v  -7.9938 6.1841 -7.9499
v  -11.5271 5.1463 -7.6563
v  -9.3911 6.1841 -6.2376
v  -12.7992 5.1463 -5.2604
v  -10.4276 6.1841 -4.2856
v  -13.5795 5.1463 -2.6623
v  -11.0633 6.1841 -2.1690
v  -13.8380 5.1463 0.0381
v  -11.2739 6.1841 0.0310
v  -13.5647 5.1463 2.7370
v  -11.0512 6.1841 2.2299
v  -12.7701 5.1463 5.3308
v  -10.4038 6.1841 4.3430
v  -11.4847 5.1463 7.7197
v  -9.3566 6.1841 6.2892
v  -7.5045 6.1841 -7.4632
v  -5.9043 6.1841 -8.7839
v  -8.8163 6.1841 -5.8558
v  -9.7893 6.1841 -4.0233
v  -10.3861 6.1841 -2.0362
v  -10.5838 6.1841 0.0292
v  -10.3747 6.1841 2.0934
v  -9.7670 6.1841 4.0772
v  -8.7839 6.1841 5.9043
v  -8.0168 4.3508 -11.9267
v  -10.1895 4.3508 -10.1336
v  -11.9707 4.3508 -7.9510
v  -13.2918 4.3508 -5.4628
v  -14.1022 4.3508 -2.7647
v  -14.3706 4.3508 0.0396
v  -14.0867 4.3508 2.8424
v  -13.2615 4.3508 5.5360
v  -11.9267 4.3508 8.0168
v  -6.4605 3.7261 -9.6114
v  -8.2114 3.7261 -8.1663
v  -9.6468 3.7261 -6.4074
v  -10.7115 3.7261 -4.4023
v  -11.3645 3.7261 -2.2280
v  -11.5808 3.7261 0.0319
v  -11.3521 3.7261 2.2906
v  -10.6871 3.7261 4.4613
v  -9.6114 3.7261 6.4605
v  9.3566 6.1841 -6.2892
v  11.4847 5.1463 -7.7197
v  9.7580 5.1463 -9.8119
v  7.9499 6.1841 -7.9938
v  7.6563 5.1463 -11.5271
v  6.2376 6.1841 -9.3911
v  5.2604 5.1463 -12.7992
v  4.2856 6.1841 -10.4276
v  2.6623 5.1463 -13.5795
v  2.1690 6.1841 -11.0633
v  -0.0381 5.1463 -13.8380
v  -0.0310 6.1841 -11.2739
v  -2.7370 5.1463 -13.5647
v  -2.2299 6.1841 -11.0512
v  -5.3308 5.1463 -12.7701
v  -4.3430 6.1841 -10.4038
v  7.4633 6.1841 -7.5044
v  8.7839 6.1841 -5.9043
v  5.8558 6.1841 -8.8163
v  4.0233 6.1841 -9.7893
v  2.0362 6.1841 -10.3861
v  -0.0291 6.1841 -10.5838
v  -2.0934 6.1841 -10.3747
v  -4.0772 6.1841 -9.7670
v  11.9267 4.3508 -8.0168
v  10.1336 4.3508 -10.1895
v  7.9510 4.3508 -11.9707
v  5.4628 4.3508 -13.2918
v  2.7648 4.3508 -14.1022
v  -0.0396 4.3508 -14.3706
v  -2.8424 4.3508 -14.0867
v  -5.5359 4.3508 -13.2615
v  9.6114 3.7261 -6.4605
v  8.1663 3.7261 -8.2114
v  6.4075 3.7261 -9.6468
v  4.4023 3.7261 -10.7115
v  2.2280 3.7261 -11.3645
v  -0.0319 3.7261 -11.5808
v  -2.2906 3.7261 -11.3521
v  -4.4613 3.7261 -10.6871
v  6.2892 6.1841 9.3566
v  7.7197 5.1463 11.4847
v  9.8119 5.1463 9.7580
v  7.9938 6.1841 7.9499
v  11.5271 5.1463 7.6563
v  9.3911 6.1841 6.2376
v  12.7992 5.1463 5.2604
v  10.4276 6.1841 4.2856
v  13.5795 5.1463 2.6623
v  11.0633 6.1841 2.1690
v  13.8380 5.1463 -0.0381
v  11.2739 6.1841 -0.0310
v  13.5647 5.1463 -2.7370
v  11.0512 6.1841 -2.2299
v  10.4038 6.1841 -4.3430
v  12.7701 5.1463 -5.3308
v  7.5045 6.1841 7.4633
v  5.9043 6.1841 8.7839
v  8.8163 6.1841 5.8558
v  9.7893 6.1841 4.0233
v  10.3861 6.1841 2.0362
v  10.5838 6.1841 -0.0291
v  10.3747 6.1841 -2.0934
v  9.7670 6.1841 -4.0772
v  8.0168 4.3508 11.9267
v  10.1895 4.3508 10.1336
v  11.9707 4.3508 7.9510
v  13.2918 4.3508 5.4628
v  14.1022 4.3508 2.7648
v  14.3706 4.3508 -0.0396
v  14.0867 4.3508 -2.8424
v  13.2615 4.3508 -5.5359
v  6.4605 3.7261 9.6114
v  8.2114 3.7261 8.1663
v  9.6468 3.7261 6.4075
v  10.7115 3.7261 4.4023
v  11.3645 3.7261 2.2280
v  11.5808 3.7261 -0.0319
v  11.3521 3.7261 -2.2906
v  10.6871 3.7261 -4.4612
v  -9.7580 5.1463 9.8119
v  -7.9499 6.1841 7.9938
v  -6.2376 6.1841 9.3911
v  -7.6563 5.1463 11.5271
v  -5.2604 5.1463 12.7992
v  -4.2856 6.1841 10.4276
v  -2.1690 6.1841 11.0633
v  -2.6623 5.1463 13.5795
v  0.0381 5.1463 13.8380
v  0.0310 6.1841 11.2739
v  2.7370 5.1463 13.5647
v  2.2299 6.1841 11.0512
v  5.3308 5.1463 12.7701
v  4.3430 6.1841 10.4038
v  -7.4633 6.1841 7.5045
v  -5.8558 6.1841 8.8163
v  -4.0233 6.1841 9.7893
v  -2.0362 6.1841 10.3861
v  0.0291 6.1841 10.5838
v  2.0934 6.1841 10.3747
v  4.0772 6.1841 9.7670
v  -10.1336 4.3508 10.1895
v  -7.9510 4.3508 11.9707
v  -5.4628 4.3508 13.2918
v  -2.7648 4.3508 14.1022
v  0.0396 4.3508 14.3706
v  2.8424 4.3508 14.0867
v  5.5359 4.3508 13.2615
v  -8.1663 3.7261 8.2114
v  -6.4075 3.7261 9.6468
v  -4.4023 3.7261 10.7115
v  -2.2280 3.7261 11.3645
v  0.0319 3.7261 11.5808
v  2.2906 3.7261 11.3521
v  4.4613 3.7261 10.6871
# 160 vertices

vn -0.1130 0.9793 -0.1681
vn -0.3580 0.7670 -0.5326
vn -0.4550 0.7670 -0.4525
vn -0.1436 0.9793 -0.1428
vn -0.5345 0.7669 -0.3550
vn -0.1687 0.9793 -0.1121
vn -0.5935 0.7669 -0.2439
vn -0.1874 0.9793 -0.0770
vn -0.6297 0.7670 -0.1235
vn -0.1988 0.9793 -0.0390
vn -0.6417 0.7669 0.0018
vn -0.2026 0.9793 0.0006
vn -0.6290 0.7669 0.1269
vn -0.1986 0.9793 0.0401
vn -0.5922 0.7669 0.2472
vn -0.1869 0.9793 0.0780
vn -0.5326 0.7669 0.3580
vn -0.1681 0.9793 0.1130
vn 0.5756 0.5839 0.5724
vn 0.4529 0.5839 0.6737
vn 0.6762 0.5839 0.4491
vn 0.7509 0.5839 0.3086
vn 0.7966 0.5839 0.1562
vn 0.8118 0.5840 -0.0022
vn 0.7958 0.5839 -0.1606
vn 0.7491 0.5839 -0.3127
vn 0.6737 0.5839 -0.4529
vn -0.5216 -0.3545 -0.7760
vn -0.6630 -0.3545 -0.6594
vn -0.7789 -0.3545 -0.5173
vn -0.8648 -0.3545 -0.3554
vn -0.9176 -0.3545 -0.1799
vn -0.9350 -0.3545 0.0026
vn -0.9166 -0.3545 0.1849
vn -0.8629 -0.3545 0.3602
vn -0.7760 -0.3545 0.5216
vn 0.2406 -0.9023 0.3579
vn 0.3057 -0.9023 0.3041
vn 0.3592 -0.9023 0.2386
vn 0.3988 -0.9023 0.1639
vn 0.4231 -0.9023 0.0830
vn 0.4312 -0.9023 -0.0012
vn 0.4227 -0.9023 -0.0853
vn 0.3979 -0.9023 -0.1661
vn 0.3579 -0.9023 -0.2406
vn 0.1681 0.9793 -0.1130
vn 0.5326 0.7669 -0.3580
vn 0.4525 0.7670 -0.4550
vn 0.1428 0.9793 -0.1436
vn 0.3550 0.7669 -0.5345
vn 0.1121 0.9793 -0.1687
vn 0.2439 0.7669 -0.5935
vn 0.0770 0.9793 -0.1874
vn 0.1235 0.7669 -0.6297
vn 0.0390 0.9793 -0.1988
vn -0.0018 0.7669 -0.6417
vn -0.0006 0.9793 -0.2026
vn -0.1269 0.7669 -0.6290
vn -0.0401 0.9793 -0.1986
vn -0.2472 0.7670 -0.5922
vn -0.0780 0.9793 -0.1869
vn -0.5724 0.5839 0.5756
vn -0.6737 0.5839 0.4529
vn -0.4491 0.5839 0.6762
vn -0.3086 0.5839 0.7508
vn -0.1562 0.5840 0.7966
vn 0.0022 0.5840 0.8118
vn 0.1606 0.5839 0.7958
vn 0.3127 0.5839 0.7491
vn 0.7760 -0.3545 -0.5216
vn 0.6593 -0.3545 -0.6630
vn 0.5173 -0.3545 -0.7789
vn 0.3554 -0.3546 -0.8648
vn 0.1799 -0.3546 -0.9176
vn -0.0026 -0.3545 -0.9350
vn -0.1849 -0.3546 -0.9166
vn -0.3602 -0.3545 -0.8629
vn -0.3579 -0.9023 0.2406
vn -0.3041 -0.9023 0.3057
vn -0.2386 -0.9023 0.3592
vn -0.1639 -0.9023 0.3988
vn -0.0830 -0.9023 0.4232
vn 0.0012 -0.9023 0.4312
vn 0.0853 -0.9023 0.4227
vn 0.1661 -0.9023 0.3979
vn 0.1130 0.9793 0.1681
vn 0.3580 0.7669 0.5326
vn 0.4550 0.7670 0.4525
vn 0.1436 0.9793 0.1428
vn 0.5345 0.7669 0.3550
vn 0.1687 0.9793 0.1121
vn 0.5935 0.7669 0.2439
vn 0.1874 0.9793 0.0770
vn 0.6297 0.7669 0.1235
vn 0.1988 0.9793 0.0390
vn 0.6417 0.7669 -0.0018
vn 0.2026 0.9793 -0.0006
vn 0.6290 0.7669 -0.1269
vn 0.1986 0.9793 -0.0401
vn 0.1869 0.9793 -0.0780
vn 0.5922 0.7670 -0.2472
vn -0.5756 0.5839 -0.5724
vn -0.4529 0.5840 -0.6737
vn -0.6762 0.5840 -0.4491
vn -0.7508 0.5840 -0.3086
vn -0.7966 0.5840 -0.1562
vn -0.8118 0.5839 0.0022
vn -0.7958 0.5839 0.1606
vn -0.7491 0.5839 0.3127
vn 0.5216 -0.3546 0.7760
vn 0.6630 -0.3545 0.6594
vn 0.7789 -0.3545 0.5173
vn 0.8648 -0.3546 0.3554
vn 0.9176 -0.3545 0.1799
vn 0.9350 -0.3545 -0.0026
vn 0.9166 -0.3545 -0.1849
vn 0.8629 -0.3545 -0.3602
vn -0.2406 -0.9023 -0.3579
vn -0.3057 -0.9023 -0.3041
vn -0.3592 -0.9023 -0.2386
vn -0.3988 -0.9023 -0.1639
vn -0.4231 -0.9023 -0.0830
vn -0.4312 -0.9023 0.0012
vn -0.4227 -0.9023 0.0853
vn -0.3979 -0.9023 0.1661
vn -0.4525 0.7670 0.4550
vn -0.1428 0.9793 0.1436
vn -0.1121 0.9793 0.1687
vn -0.3550 0.7669 0.5345
vn -0.2439 0.7670 0.5935
vn -0.0770 0.9793 0.1874
vn -0.0390 0.9793 0.1988
vn -0.1235 0.7670 0.6297
vn 0.0018 0.7669 0.6417
vn 0.0006 0.9793 0.2026
vn 0.1269 0.7669 0.6290
vn 0.0401 0.9793 0.1986
vn 0.2472 0.7669 0.5922
vn 0.0780 0.9793 0.1869
vn 0.5724 0.5840 -0.5756
vn 0.4491 0.5839 -0.6762
vn 0.3086 0.5840 -0.7508
vn 0.1562 0.5839 -0.7966
vn -0.0022 0.5840 -0.8118
vn -0.1606 0.5839 -0.7958
vn -0.3127 0.5840 -0.7491
vn -0.6594 -0.3545 0.6630
vn -0.5173 -0.3545 0.7789
vn -0.3554 -0.3545 0.8648
vn -0.1799 -0.3545 0.9176
vn 0.0026 -0.3545 0.9350
vn 0.1849 -0.3545 0.9166
vn 0.3602 -0.3545 0.8629
vn 0.3041 -0.9023 -0.3057
vn 0.2386 -0.9023 -0.3592
vn 0.1639 -0.9023 -0.3988
vn 0.0830 -0.9023 -0.4231
vn -0.0012 -0.9023 -0.4312
vn -0.0853 -0.9023 -0.4227
vn -0.1661 -0.9023 -0.3979
# 160 vertex normals

vt 0.5053 0.8765 0.0000
vt 0.4807 0.8259 0.0000
vt 0.5229 0.8259 0.0000
vt 0.5393 0.8765 0.0000
vt 0.5657 0.8259 0.0000
vt 0.5750 0.8765 0.0000
vt 0.6080 0.8259 0.0000
vt 0.6123 0.8765 0.0000
vt 0.6500 0.8259 0.0000
vt 0.6504 0.8765 0.0000
vt 0.6919 0.8259 0.0000
vt 0.6885 0.8765 0.0000
vt 0.7342 0.8259 0.0000
vt 0.7258 0.8765 0.0000
vt 0.7771 0.8259 0.0000
vt 0.7615 0.8765 0.0000
vt 0.8195 0.8259 0.0000
vt 0.7956 0.8765 0.0000
vt 0.5415 0.8907 0.0000
vt 0.5091 0.8907 0.0000
vt 0.5764 0.8907 0.0000
vt 0.6130 0.8907 0.0000
vt 0.6505 0.8907 0.0000
vt 0.6880 0.8907 0.0000
vt 0.7246 0.8907 0.0000
vt 0.7596 0.8907 0.0000
vt 0.7920 0.8907 0.0000
vt 0.4757 0.8083 0.0000
vt 0.5195 0.8083 0.0000
vt 0.5640 0.8083 0.0000
vt 0.6073 0.8083 0.0000
vt 0.6499 0.8083 0.0000
vt 0.6925 0.8083 0.0000
vt 0.7358 0.8083 0.0000
vt 0.7803 0.8083 0.0000
vt 0.8243 0.8045 0.0000
vt 0.4865 0.9720 0.0000
vt 0.4978 0.9313 0.0000
vt 0.5362 0.9313 0.0000
vt 0.5309 0.9720 0.0000
vt 0.5747 0.9313 0.0000
vt 0.5730 0.9720 0.0000
vt 0.6128 0.9313 0.0000
vt 0.6126 0.9720 0.0000
vt 0.6508 0.9313 0.0000
vt 0.6511 0.9720 0.0000
vt 0.6895 0.9720 0.0000
vt 0.6888 0.9313 0.0000
vt 0.7269 0.9313 0.0000
vt 0.7714 0.9720 0.0000
vt 0.7292 0.9720 0.0000
vt 0.7655 0.9313 0.0000
vt 0.8038 0.9313 0.0000
vt 0.8157 0.9720 0.0000
# 54 texture coords

o 对象001
g 对象001
usemtl Material__48
s 4
f 1/1/1 2/2/2 3/3/3 4/4/4 
f 4/4/4 3/3/3 5/5/5 6/6/6 
f 6/6/6 5/5/5 7/7/7 8/8/8 
f 9/9/9 10/10/10 8/8/8 7/7/7 
f 10/10/10 9/9/9 11/11/11 12/12/12 
f 11/11/11 13/13/13 14/14/14 12/12/12 
f 13/13/13 15/15/15 16/16/16 14/14/14 
f 15/15/15 17/17/17 18/18/18 16/16/16 
s 1
f 19/19/19 20/20/20 1/1/1 4/4/4 
f 4/4/4 6/6/6 21/21/21 19/19/19 
f 6/6/6 8/8/8 22/22/22 21/21/21 
f 22/22/22 8/8/8 10/10/10 23/23/23 
f 23/23/23 10/10/10 12/12/12 24/24/24 
f 24/24/24 12/12/12 14/14/14 25/25/25 
f 16/16/16 26/26/26 25/25/25 14/14/14 
f 27/27/27 26/26/26 16/16/16 18/18/18 
f 28/28/28 29/29/29 3/3/3 2/2/2 
f 29/29/29 30/30/30 5/5/5 3/3/3 
f 30/30/30 31/31/31 7/7/7 5/5/5 
f 31/31/31 32/32/32 9/9/9 7/7/7 
f 32/32/32 33/33/33 11/11/11 9/9/9 
f 33/33/33 34/34/34 13/13/13 11/11/11 
f 34/34/34 35/35/35 15/15/15 13/13/13 
f 17/17/17 15/15/15 35/35/35 36/36/36 
s 2
f 28/37/28 37/38/37 38/39/38 29/40/29 
f 29/40/29 38/39/38 39/41/39 30/42/30 
f 30/42/30 39/41/39 40/43/40 31/44/31 
f 31/44/31 40/43/40 41/45/41 32/46/32 
f 33/47/33 32/46/32 41/45/41 42/48/42 
f 25/25/25 43/49/43 42/48/42 24/24/24 
f 35/50/35 34/51/34 43/49/43 44/52/44 
f 27/27/27 45/53/45 44/52/44 26/26/26 
s 4
f 46/1/46 47/2/47 48/3/48 49/4/49 
f 49/4/49 48/3/48 50/5/50 51/6/51 
f 51/6/51 50/5/50 52/7/52 53/8/53 
f 54/9/54 55/10/55 53/8/53 52/7/52 
f 56/11/56 57/12/57 55/10/55 54/9/54 
f 58/13/58 59/14/59 57/12/57 56/11/56 
f 59/14/59 58/13/58 60/15/60 61/16/61 
f 2/17/2 1/18/1 61/16/61 60/15/60 
s 1
f 46/1/46 49/4/49 62/19/62 63/20/63 
f 64/21/64 62/19/62 49/4/49 51/6/51 
f 51/6/51 53/8/53 65/22/65 64/21/64 
f 53/8/53 55/10/55 66/23/66 65/22/65 
f 55/10/55 57/12/57 67/24/67 66/23/66 
f 57/12/57 59/14/59 68/25/68 67/24/67 
f 61/16/61 69/26/69 68/25/68 59/14/59 
f 1/18/1 20/27/20 69/26/69 61/16/61 
f 70/28/70 71/29/71 48/3/48 47/2/47 
f 48/3/48 71/29/71 72/30/72 50/5/50 
f 50/5/50 72/30/72 73/31/73 52/7/52 
f 52/7/52 73/31/73 74/32/74 54/9/54 
f 54/9/54 74/32/74 75/33/75 56/11/56 
f 58/13/58 56/11/56 75/33/75 76/34/76 
f 76/34/76 77/35/77 60/15/60 58/13/58 
f 2/17/2 60/15/60 77/35/77 28/36/28 
s 2
f 70/37/70 78/38/78 79/39/79 71/40/71 
f 64/21/64 80/41/80 79/39/79 62/19/62 
f 65/22/65 81/43/81 80/41/80 64/21/64 
f 66/23/66 82/45/82 81/43/81 65/22/65 
f 75/47/75 74/46/74 82/45/82 83/48/83 
f 67/24/67 68/25/68 84/49/84 83/48/83 
f 68/25/68 69/26/69 85/52/85 84/49/84 
f 69/26/69 20/27/20 37/53/37 85/52/85 
s 4
f 86/1/86 87/2/87 88/3/88 89/4/89 
f 88/3/88 90/5/90 91/6/91 89/4/89 
f 90/5/90 92/7/92 93/8/93 91/6/91 
f 94/9/94 95/10/95 93/8/93 92/7/92 
f 96/11/96 97/12/97 95/10/95 94/9/94 
f 97/12/97 96/11/96 98/13/98 99/14/99 
f 100/16/100 99/14/99 98/13/98 101/15/101 
f 46/18/46 100/16/100 101/15/101 47/17/47 
s 1
f 89/4/89 102/19/102 103/20/103 86/1/86 
f 89/4/89 91/6/91 104/21/104 102/19/102 
f 105/22/105 104/21/104 91/6/91 93/8/93 
f 93/8/93 95/10/95 106/23/106 105/22/105 
f 107/24/107 106/23/106 95/10/95 97/12/97 
f 108/25/108 107/24/107 97/12/97 99/14/99 
f 109/26/109 108/25/108 99/14/99 100/16/100 
f 63/27/63 109/26/109 100/16/100 46/18/46 
f 88/3/88 87/2/87 110/28/110 111/29/111 
f 88/3/88 111/29/111 112/30/112 90/5/90 
f 112/30/112 113/31/113 92/7/92 90/5/90 
f 113/31/113 114/32/114 94/9/94 92/7/92 
f 114/32/114 115/33/115 96/11/96 94/9/94 
f 98/13/98 96/11/96 115/33/115 116/34/116 
f 116/34/116 117/35/117 101/15/101 98/13/98 
f 117/35/117 70/36/70 47/17/47 101/15/101 
s 2
f 110/37/110 118/38/118 119/39/119 111/40/111 
f 111/40/111 119/39/119 120/41/120 112/42/112 
f 113/44/113 112/42/112 120/41/120 121/43/121 
f 106/23/106 122/45/122 121/43/121 105/22/105 
f 106/23/106 107/24/107 123/48/123 122/45/122 
f 115/47/115 123/48/123 124/49/124 116/51/116 
f 116/51/116 124/49/124 125/52/125 117/50/117 
f 117/50/117 125/52/125 78/53/78 70/54/70 
s 4
f 17/2/17 126/3/126 127/4/127 18/1/18 
f 128/6/128 127/4/127 126/3/126 129/5/129 
f 130/7/130 131/8/131 128/6/128 129/5/129 
f 132/10/132 131/8/131 130/7/130 133/9/133 
f 132/10/132 133/9/133 134/11/134 135/12/135 
f 135/12/135 134/11/134 136/13/136 137/14/137 
f 136/13/136 138/15/138 139/16/139 137/14/137 
f 138/15/138 87/17/87 86/18/86 139/16/139 
s 1
f 140/19/140 27/20/27 18/1/18 127/4/127 
f 141/21/141 140/19/140 127/4/127 128/6/128 
f 141/21/141 128/6/128 131/8/131 142/22/142 
f 143/23/143 142/22/142 131/8/131 132/10/132 
f 132/10/132 135/12/135 144/24/144 143/23/143 
f 135/12/135 137/14/137 145/25/145 144/24/144 
f 146/26/146 145/25/145 137/14/137 139/16/139 
f 146/26/146 139/16/139 86/18/86 103/27/103 
f 126/3/126 17/2/17 36/28/36 147/29/147 
f 126/3/126 147/29/147 148/30/148 129/5/129 
f 129/5/129 148/30/148 149/31/149 130/7/130 
f 130/7/130 149/31/149 150/32/150 133/9/133 
f 133/9/133 150/32/150 151/33/151 134/11/134 
f 136/13/136 134/11/134 151/33/151 152/34/152 
f 138/15/138 136/13/136 152/34/152 153/35/153 
f 153/35/153 110/36/110 87/17/87 138/15/138 
s 2
f 140/19/140 154/39/154 45/38/45 27/20/27 
f 148/42/148 147/40/147 154/39/154 155/41/155 
f 148/42/148 155/41/155 156/43/156 149/44/149 
f 142/22/142 143/23/143 157/45/157 156/43/156 
f 150/46/150 157/45/157 158/48/158 151/47/151 
f 145/25/145 159/49/159 158/48/158 144/24/144 
f 146/26/146 160/52/160 159/49/159 145/25/145 
f 103/27/103 118/53/118 160/52/160 146/26/146 
f 37/38/37 20/20/20 19/19/19 38/39/38 
f 38/39/38 19/19/19 21/21/21 39/41/39 
f 39/41/39 21/21/21 22/22/22 40/43/40 
f 40/43/40 22/22/22 23/23/23 41/45/41 
f 41/45/41 23/23/23 24/24/24 42/48/42 
f 43/49/43 34/51/34 33/47/33 42/48/42 
f 43/49/43 25/25/25 26/26/26 44/52/44 
f 45/53/45 36/54/36 35/50/35 44/52/44 
f 78/38/78 63/20/63 62/19/62 79/39/79 
f 80/41/80 72/42/72 71/40/71 79/39/79 
f 81/43/81 73/44/73 72/42/72 80/41/80 
f 82/45/82 74/46/74 73/44/73 81/43/81 
f 82/45/82 66/23/66 67/24/67 83/48/83 
f 84/49/84 76/51/76 75/47/75 83/48/83 
f 85/52/85 77/50/77 76/51/76 84/49/84 
f 37/53/37 28/54/28 77/50/77 85/52/85 
f 118/38/118 103/20/103 102/19/102 119/39/119 
f 119/39/119 102/19/102 104/21/104 120/41/120 
f 120/41/120 104/21/104 105/22/105 121/43/121 
f 122/45/122 114/46/114 113/44/113 121/43/121 
f 123/48/123 115/47/115 114/46/114 122/45/122 
f 123/48/123 107/24/107 108/25/108 124/49/124 
f 124/49/124 108/25/108 109/26/109 125/52/125 
f 125/52/125 109/26/109 63/27/63 78/53/78 
f 154/39/154 147/40/147 36/37/36 45/38/45 
f 154/39/154 140/19/140 141/21/141 155/41/155 
f 155/41/155 141/21/141 142/22/142 156/43/156 
f 157/45/157 150/46/150 149/44/149 156/43/156 
f 157/45/157 143/23/143 144/24/144 158/48/158 
f 159/49/159 152/51/152 151/47/151 158/48/158 
f 160/52/160 153/50/153 152/51/152 159/49/159 
f 118/53/118 110/54/110 153/50/153 160/52/160 
# 160 polygons

