# 3ds Max Wavefront OBJ Exporter v0.97b - (c)2007 guruware
# 创建的文件:11.01.2021 14:25:03

mtllib baoshi_4.mtl

#
# object Baoshi_4
#

v  8.6504 8.7996 -9.4566
v  8.1483 8.7996 -9.4284
v  7.2734 8.7996 -8.3316
v  7.3050 8.7996 -7.7697
v  7.7697 8.7996 -7.3050
v  8.3316 8.7996 -7.2734
v  9.4284 8.7996 -8.1483
v  9.4566 8.7996 -8.6504
v  8.1307 8.1162 -9.5633
v  7.1517 8.1162 -8.3359
v  7.1517 8.7299 -8.3359
v  8.1307 8.7299 -9.5633
v  7.1870 8.1162 -7.7071
v  7.7071 8.1162 -7.1870
v  7.7071 8.7299 -7.1870
v  7.1870 8.7299 -7.7071
v  8.3359 8.1162 -7.1517
v  9.5633 8.1162 -8.1307
v  9.5633 8.7299 -8.1307
v  8.3359 8.7299 -7.1517
v  9.5948 8.1162 -8.6926
v  8.6926 8.1162 -9.5949
v  8.6926 8.7299 -9.5949
v  9.5948 8.7299 -8.6926
# 24 vertices

vn 0.1057 0.9604 -0.2577
vn -0.1795 0.9476 -0.2642
vn -0.3022 0.9454 -0.1221
vn -0.2666 0.9572 0.1132
vn -0.1132 0.9572 0.2666
vn 0.1221 0.9454 0.3022
vn 0.2642 0.9476 0.1795
vn 0.2577 0.9604 -0.1057
vn -0.4590 0.0000 -0.8885
vn -0.9527 0.0000 -0.3038
vn -0.8524 0.4536 -0.2601
vn -0.3935 0.4630 -0.7942
vn -0.9128 0.0000 0.4084
vn -0.4085 0.0000 0.9128
vn -0.3625 0.4719 0.8037
vn -0.8037 0.4718 0.3624
vn 0.3037 0.0000 0.9528
vn 0.8885 0.0000 0.4589
vn 0.7942 0.4630 0.3935
vn 0.2600 0.4535 0.8525
vn 0.9342 0.0000 -0.3566
vn 0.3567 0.0000 -0.9342
vn 0.3108 0.4774 -0.8219
vn 0.8219 0.4774 -0.3108
# 24 vertex normals

vt 0.5055 0.9154 0.0000
vt 0.4684 0.8780 0.0000
vt 0.4864 0.7266 0.0000
vt 0.5323 0.6884 0.0000
vt 0.6032 0.6884 0.0000
vt 0.6491 0.7266 0.0000
vt 0.6671 0.8780 0.0000
vt 0.6299 0.9154 0.0000
vt 0.4065 0.9040 0.0000
vt 0.4271 0.6923 0.0000
vt 0.4793 0.7196 0.0000
vt 0.4601 0.8854 0.0000
vt 0.5087 0.6235 0.0000
vt 0.6268 0.6235 0.0000
vt 0.6061 0.6794 0.0000
vt 0.5293 0.6794 0.0000
vt 0.7084 0.6923 0.0000
vt 0.7290 0.9040 0.0000
vt 0.6754 0.8854 0.0000
vt 0.6562 0.7196 0.0000
vt 0.6580 0.9765 0.0000
vt 0.4775 0.9765 0.0000
vt 0.5000 0.9234 0.0000
vt 0.6354 0.9234 0.0000
# 24 texture coords

o Baoshi_4
g Baoshi_4
usemtl Material__49
s 1
f 1/1/1 2/2/2 3/3/3 4/4/4 5/5/5 6/6/6 7/7/7 8/8/8 
s 256
f 9/9/9 10/10/10 11/11/11 12/12/12 
s 32
f 13/13/13 14/14/14 15/15/15 16/16/16 
s 1024
f 17/17/17 18/18/18 19/19/19 20/20/20 
s 128
f 21/21/21 22/22/22 23/23/23 24/24/24 
s 16
f 10/10/10 13/13/13 16/16/16 11/11/11 
s 2
f 2/2/2 1/1/1 23/23/23 12/12/12 
s 4
f 14/14/14 17/17/17 20/20/20 15/15/15 
f 18/18/18 21/21/21 24/24/24 19/19/19 
s 2
f 11/11/11 3/3/3 2/2/2 12/12/12 
f 15/15/15 5/5/5 4/4/4 16/16/16 
f 19/19/19 7/7/7 6/6/6 20/20/20 
f 23/23/23 1/1/1 8/8/8 24/24/24 
f 16/16/16 4/4/4 3/3/3 11/11/11 
s 8
f 23/23/23 22/22/22 9/9/9 12/12/12 
s 2
f 20/20/20 6/6/6 5/5/5 15/15/15 
f 24/24/24 8/8/8 7/7/7 19/19/19 
# 17 polygons

